<svg xmlns="http://www.w3.org/2000/svg" height="48px" viewBox="0 -960 960 960" width="48px" fill="#000000"><path d="M307.5-70Q227-104 166-165T70.5-306.5Q36-387 36-479q0-133 70-242t193-165q-5 23-5 44t5 46q-86 48-134.5 133.5T116-479q0 152 106 257.5T480-116q152 0 258.5-105.5T845-479q0-99-49.5-183.5T660-797q5-26 6-46t-4-43q122 56 192.5 165T925-479q0 92-35 172.5T794-165q-61 61-142 95T479.5-36q-91.5 0-172-34ZM292-291.5Q215-369 215-479q0-66 29.5-121.5T327-696q4 17 11.5 37.5T355-612q-29 26-44.5 60T295-479q0 78 53.5 131T480-295q78 0 132-53t54-131q0-39-16-73t-43-60q8-29 15-48.5t12-35.5q52 40 82 95.5T746-479q0 110-77.5 187.5T480-214q-111 0-188-77.5ZM440-636q-41-104-51-142.5T379-854q0-42 29.5-72.5T480-957q42 0 72.5 30.5T583-854q0 36-11 72.5T521-636h-81Zm-14.5 210.5Q404-447 404-480t21.5-55q21.5-22 54.5-22t55 22q22 22 22 55t-22 54.5Q513-404 480-404t-54.5-21.5Z"/></svg>